<svg xmlns="http://www.w3.org/2000/svg" width="60" height="60" fill="none" viewBox="0 0 60 60">
  <circle cx="30" cy="30" r="30" fill="#FAF5F2"/>
  <path fill="#F79489" d="m46.75 36.26-5.848-3.863a.694.694 0 0 0-.963.2.7.7 0 0 0 .2.968l4.834 3.192-20.274 7.236-14.461-9.614 8.267-3.024a.699.699 0 0 0-.476-1.312l-9.574 3.501a.697.697 0 0 0-.424.862v4.15c0 .082.017.159.042.232a.697.697 0 0 0 .31.567L24.22 49.884a.692.692 0 0 0 .384.116c.137 0 .27-.046.386-.123l21.814-7.785a.695.695 0 0 0 .454-.575.695.695 0 0 0 .061-.283v-4.289a.698.698 0 0 0-.568-.686Zm-37.327-.75 14.487 9.632v2.859L9.422 38.37v-2.86ZM25.3 45.26l20.63-7.363v3.023L25.3 48.282V45.26Z"/>
  <path fill="#F79489" d="M52 21.45a.707.707 0 0 0-.568-.698L35.754 10.116c-.012-.01-.026-.014-.039-.021a.685.685 0 0 0-.261-.089L35.39 10a.724.724 0 0 0-.208.028c-.014.004-.029.005-.043.01l-21.996 7.935a.716.716 0 0 0-.43.888v4.227c0 .081.016.158.04.23.004.227.112.45.311.584l15.833 10.742a.68.68 0 0 0 .384.118.681.681 0 0 0 .387-.127l21.813-7.934a.706.706 0 0 0 .455-.583c.04-.09.063-.19.063-.294V21.45ZM35.275 11.5l14.384 9.757-20.282 7.377-14.442-9.797 20.34-7.338Zm-21.17 8.482 14.482 9.825v2.916l-14.483-9.825v-2.916Zm15.872 9.945 20.633-7.504v3.082l-20.633 7.506v-3.084Z"/>
</svg>
