<svg xmlns="http://www.w3.org/2000/svg" width="60" height="60" fill="none" viewBox="0 0 60 60">
  <circle cx="30" cy="30" r="30" fill="#FAF5F2"/>
  <path fill="#F79489" d="m35.979 24.75-7.874 8.968-3.995-4.063a.691.691 0 0 0-.99 0 .72.72 0 0 0 0 1.006l4.52 4.596a.69.69 0 0 0 .494.208h.02a.695.695 0 0 0 .502-.238l8.367-9.53a.72.72 0 0 0-.056-1.004.693.693 0 0 0-.988.057Z"/>
  <path fill="#F79489" d="M49.978 29.999a.692.692 0 0 0 .022-.167c0-1.883-1.97-2.855-3.707-3.714-1.233-.61-2.508-1.24-2.848-2.034-.345-.81.143-2.132.614-3.41.657-1.782 1.336-3.623.083-4.864-1.23-1.219-3.026-.806-4.764-.406-1.217.28-2.475.568-3.313.217-.818-.343-1.498-1.407-2.156-2.437C32.955 11.692 31.875 10 30 10c-1.878 0-2.938 1.728-3.873 3.254-.648 1.059-1.32 2.153-2.136 2.496-.835.35-2.107.033-3.337-.274-1.752-.436-3.564-.889-4.795.334-1.245 1.234-.642 3.084-.058 4.875.417 1.277.848 2.598.5 3.416-.34.798-1.56 1.423-2.738 2.027-1.67.856-3.563 1.826-3.563 3.705 0 .058.01.114.023.168a.692.692 0 0 0-.022.167c0 1.878 1.893 2.849 3.563 3.705 1.178.604 2.397 1.229 2.737 2.026.348.818-.082 2.14-.5 3.417-.583 1.79-1.186 3.64.058 4.874 1.232 1.223 3.044.772 4.795.334 1.23-.306 2.503-.623 3.338-.272.816.342 1.487 1.436 2.136 2.495C27.063 48.272 28.122 50 30 50c1.875 0 2.956-1.692 3.91-3.184.658-1.03 1.338-2.094 2.154-2.437.842-.352 2.098-.063 3.314.217 1.737.4 3.535.814 4.763-.405 1.254-1.242.575-3.084-.082-4.865-.472-1.278-.96-2.6-.614-3.409.34-.795 1.615-1.425 2.848-2.034C48.031 33.024 50 32.05 50 30.169a.682.682 0 0 0-.022-.17Zm-4.32 2.618c-1.465.723-2.98 1.472-3.525 2.748-.563 1.323.022 2.91.588 4.445.526 1.427 1.024 2.776.413 3.38-.67.665-2.013.356-3.434.03-1.438-.331-2.925-.674-4.19-.143-1.228.515-2.029 1.77-2.804 2.982-.83 1.3-1.614 2.527-2.706 2.527-1.077 0-1.843-1.25-2.655-2.574-.766-1.25-1.558-2.543-2.799-3.063-1.275-.535-2.781-.16-4.24.204-1.429.356-2.779.694-3.44.037-.628-.622-.182-1.991.29-3.44.498-1.524 1.01-3.1.456-4.402-.54-1.268-1.991-2.011-3.394-2.731-1.437-.736-2.794-1.432-2.794-2.45a.71.71 0 0 0-.022-.17.692.692 0 0 0 .022-.166c0-1.019 1.357-1.714 2.793-2.45 1.403-.72 2.855-1.463 3.395-2.732.554-1.302.041-2.877-.456-4.4-.473-1.45-.92-2.82-.29-3.442.66-.656 2.01-.319 3.44.037 1.457.363 2.964.74 4.24.205 1.24-.52 2.032-1.813 2.799-3.063.811-1.324 1.578-2.575 2.655-2.575 1.091 0 1.875 1.228 2.706 2.527.775 1.213 1.576 2.468 2.804 2.983 1.266.53 2.752.189 4.19-.142 1.421-.327 2.764-.637 3.434.029.61.604.113 1.952-.413 3.38-.566 1.535-1.152 3.122-.588 4.445.545 1.276 2.06 2.025 3.525 2.748 1.5.742 2.917 1.442 2.917 2.45 0 .058.01.114.023.168a.692.692 0 0 0-.022.167c0 1.01-1.417 1.71-2.918 2.45Z"/>
</svg>
