<svg xmlns="http://www.w3.org/2000/svg" width="60" height="60" fill="none" viewBox="0 0 60 60">
  <circle cx="30" cy="30" r="30" fill="#FAF5F2"/>
  <path fill="#F79489" d="M47.474 13.55h-4.316v-.77A2.774 2.774 0 0 0 40.396 10a2.778 2.778 0 0 0-2.77 2.78v.77h-4.733v-.77c0-1.533-1.24-2.78-2.766-2.78a2.778 2.778 0 0 0-2.77 2.78v.77h-4.732v-.77A2.776 2.776 0 0 0 19.859 10a2.777 2.777 0 0 0-2.767 2.78v.77h-4.3a.794.794 0 0 0-.792.796v34.858c0 .44.354.796.792.796h34.683a.794.794 0 0 0 .792-.796V14.346a.795.795 0 0 0-.793-.796Zm-8.264-.77c0-.655.532-1.188 1.186-1.188.65 0 1.178.533 1.178 1.188v3.71c0 .655-.529 1.189-1.178 1.189a1.189 1.189 0 0 1-1.186-1.19V12.78Zm-10.268 0c0-.655.532-1.188 1.185-1.188.652 0 1.182.533 1.182 1.188v3.71c0 .655-.53 1.189-1.182 1.189a1.188 1.188 0 0 1-1.185-1.19V12.78Zm-10.266 0c0-.655.53-1.188 1.183-1.188.651 0 1.181.533 1.181 1.188v3.71c0 .655-.53 1.189-1.181 1.189a1.187 1.187 0 0 1-1.183-1.19V12.78Zm28.006 35.627H13.584V15.142h3.508v1.347a2.776 2.776 0 0 0 2.766 2.781 2.777 2.777 0 0 0 2.766-2.78v-1.348h4.733v1.347a2.778 2.778 0 0 0 2.77 2.781 2.777 2.777 0 0 0 2.766-2.78v-1.348h4.733v1.347a2.779 2.779 0 0 0 2.77 2.781c1.523 0 2.762-1.248 2.762-2.78v-1.348h3.523v33.265h.001Z"/>
  <path fill="#F79489" d="M37.831 26.266 29.013 36.31l-4.475-4.55a.774.774 0 0 0-1.108 0 .806.806 0 0 0 0 1.127l5.06 5.146c.148.15.347.234.555.234h.022A.778.778 0 0 0 29.63 38L39 27.328a.806.806 0 0 0-.062-1.125.776.776 0 0 0-1.107.064Z"/>
</svg>
