<svg xmlns="http://www.w3.org/2000/svg" width="60" height="60" fill="none" viewBox="0 0 60 60">
  <circle cx="30" cy="30" r="30" fill="#FAF5F2"/>
  <path fill="#F79489" d="m44.81 31.904-9.42-1.39-4.211-8.673a.619.619 0 0 0-.557-.352.619.619 0 0 0-.556.352l-4.212 8.672-9.42 1.391a.624.624 0 0 0-.501.43.637.637 0 0 0 .157.646l6.816 6.75-1.61 9.533a.636.636 0 0 0 .248.617c.191.14.445.16.654.048l8.424-4.501 8.425 4.5a.614.614 0 0 0 .654-.047.637.637 0 0 0 .247-.617l-1.61-9.533 6.816-6.75a.638.638 0 0 0 .157-.647.622.622 0 0 0-.5-.429Zm-7.57 7.156a.638.638 0 0 0-.18.558l1.454 8.6-7.602-4.061a.614.614 0 0 0-.577 0l-7.6 4.06 1.45-8.6a.638.638 0 0 0-.178-.557l-6.148-6.09 8.498-1.255a.622.622 0 0 0 .467-.344l3.8-7.824 3.8 7.824c.09.186.265.315.467.345l8.498 1.254-6.15 6.09ZM19.866 24.894c.225 0 .44-.132.541-.355a.624.624 0 0 0-.288-.819l-6.27-3.024a.59.59 0 0 0-.793.297.625.625 0 0 0 .289.82l6.27 3.023a.582.582 0 0 0 .251.058Zm27.078-3.9a.59.59 0 0 0-.793-.298l-6.27 3.024a.625.625 0 0 0-.288.819.596.596 0 0 0 .54.355.588.588 0 0 0 .253-.058l6.27-3.024a.625.625 0 0 0 .288-.819ZM30.622 18.51a.625.625 0 0 0 .622-.627v-7.256a.625.625 0 0 0-.622-.627.625.625 0 0 0-.622.627v7.256c0 .347.279.628.622.628Z"/>
</svg>
